<svg width="20" height="20" viewBox="0 0 20 20" fill="none" xmlns="http://www.w3.org/2000/svg">
<mask id="path-1-inside-1_3289_1599" fill="white">
<path d="M19.7917 7.55938L14.2938 12.0948L16.0115 19.7917L9.89584 15.3938L3.78021 19.7917L5.49792 12.0948L0 7.55938L6.59688 6.59688L9.89584 0L13.1948 6.59688L19.7917 7.55938Z"/>
</mask>
<path d="M19.7917 7.55938L14.2938 12.0948L16.0115 19.7917L9.89584 15.3938L3.78021 19.7917L5.49792 12.0948L0 7.55938L6.59688 6.59688L9.89584 0L13.1948 6.59688L19.7917 7.55938Z" fill="black"/>
<path d="M19.7917 7.55938L41.0034 33.2727L98.9995 -14.5703L24.6041 -25.4247L19.7917 7.55938ZM14.2938 12.0948L-6.918 -13.6185L-22.6937 -0.604586L-18.2393 19.3552L14.2938 12.0948ZM16.0115 19.7917L-3.44982 46.854L67.6082 97.9538L48.5445 12.5313L16.0115 19.7917ZM9.89583 15.3938L29.3571 -11.6686L9.89583 -25.6637L-9.56544 -11.6686L9.89583 15.3938ZM3.78021 19.7917L-28.7528 12.5313L-47.8165 97.9538L23.2415 46.854L3.78021 19.7917ZM5.49792 12.0948L38.0309 19.3552L42.4854 -0.604587L26.7097 -13.6185L5.49792 12.0948ZM0 7.55938L-4.81246 -25.4247L-79.2078 -14.5703L-21.2118 33.2727L0 7.55938ZM6.59688 6.59688L11.4093 39.581L28.6275 37.0688L36.4102 21.5059L6.59688 6.59688ZM9.89583 0L39.7091 -14.909L9.89583 -74.5262L-19.9175 -14.909L9.89583 0ZM13.1948 6.59688L-16.6185 21.5059L-8.83581 37.0688L8.38233 39.581L13.1948 6.59688ZM19.7917 7.55938L-1.42008 -18.1539L-6.918 -13.6185L14.2938 12.0948L35.5055 37.8081L41.0034 33.2727L19.7917 7.55938ZM14.2938 12.0948L-18.2393 19.3552L-16.5216 27.0521L16.0115 19.7917L48.5445 12.5313L46.8268 4.83441L14.2938 12.0948ZM16.0115 19.7917L35.4727 -7.27066L29.3571 -11.6686L9.89583 15.3938L-9.56544 42.4561L-3.44982 46.854L16.0115 19.7917ZM9.89583 15.3938L-9.56544 -11.6686L-15.6811 -7.27066L3.78021 19.7917L23.2415 46.854L29.3571 42.4561L9.89583 15.3938ZM3.78021 19.7917L36.3132 27.0521L38.0309 19.3552L5.49792 12.0948L-27.0351 4.83441L-28.7528 12.5313L3.78021 19.7917ZM5.49792 12.0948L26.7097 -13.6185L21.2118 -18.1539L0 7.55938L-21.2118 33.2727L-15.7138 37.8081L5.49792 12.0948ZM0 7.55938L4.81246 40.5435L11.4093 39.581L6.59688 6.59688L1.78442 -26.3872L-4.81246 -25.4247L0 7.55938ZM6.59688 6.59688L36.4102 21.5059L39.7091 14.909L9.89583 0L-19.9175 -14.909L-23.2164 -8.31213L6.59688 6.59688ZM9.89583 0L-19.9175 14.909L-16.6185 21.5059L13.1948 6.59688L43.0081 -8.31213L39.7091 -14.909L9.89583 0ZM13.1948 6.59688L8.38233 39.581L14.9792 40.5435L19.7917 7.55938L24.6041 -25.4247L18.0073 -26.3872L13.1948 6.59688Z" fill="#F2C088" mask="url(#path-1-inside-1_3289_1599)"/>
</svg>
