<svg width="273" height="521" viewBox="0 0 273 521" fill="none" xmlns="http://www.w3.org/2000/svg">
<g clip-path="url(#clip0_3274_1789)">
<path d="M204.338 468.549C202.077 467.391 196.504 465.544 193.781 464.468C187.622 462.012 181.562 459.317 175.613 456.389C140.189 438.698 110.027 412.025 88.135 379.036C55.4412 329.573 43.7651 269.141 55.6816 211.063C65.5914 162.738 91.3715 119.112 128.924 87.116C139.028 78.5369 146.414 73.7294 157.226 66.5991L157.865 67.3104C148.323 73.628 140.306 79.375 131.596 86.9621C95.4614 118.483 70.676 160.993 61.0462 207.962C49.5051 264.192 60.7373 322.705 92.2801 370.666C124.062 418.886 173.81 452.4 230.445 463.744C232.73 464.207 243.888 465.743 245.015 466.205C245.972 466.602 246.779 467.293 247.322 468.174C249.519 471.714 247.243 475.54 244.221 477.659C235.312 476.623 225.728 474.423 217.042 472.174C212.771 471.07 208.413 469.517 204.143 468.43L204.866 468.498C199.234 472.226 193.808 476.277 188.071 480.09C184.96 481.939 180.331 484.519 177.543 486.602C181.414 485.139 185.564 482.947 189.288 481.052C195.174 478.064 201.996 474.36 207.458 470.635C203.492 486.306 195.522 495.189 179.589 499.543L177.841 500.016C166.594 501.889 160.538 501.169 149.636 498.488C155.415 475.867 183.575 467.508 204.338 468.549Z" fill="#1E1E1E"/>
<path d="M174.548 495.834C175.434 494.923 175.734 494.303 176.818 494.055C177.756 494.757 178.871 498.028 179.588 499.543L177.841 500.016C177.769 499.948 177.696 499.877 177.624 499.809C176.999 498.352 175.656 497.047 174.548 495.834Z" fill="#201F21"/>
<path d="M182.188 489.629C182.723 489.832 182.534 489.713 182.907 490.186C182.771 491.576 181.763 492.342 180.727 493.193C180.109 492.883 180.317 493.028 179.846 492.514C179.916 491.434 181.312 490.431 182.188 489.629Z" fill="#201F21"/>
<path d="M113.224 474.667C124.029 452.846 149.946 450.341 171.363 454.282C168.873 455.228 165.412 457.115 162.935 458.328C159.046 460.223 155.108 462.02 151.126 463.712L144.873 466.173C143.492 466.545 142.613 467.103 141.365 467.78L146.687 466.398C148.127 465.819 149.591 465.596 151.266 464.854C156.105 463.685 169.215 458.899 173.412 456.579C173.039 457.58 172.646 458.575 172.232 459.56C168.615 467.894 161.794 474.42 153.309 477.667C139.525 483.097 126.273 480.258 113.224 474.667Z" fill="#1E1E1E"/>
<path d="M81.2656 445.722C90.5105 430.731 111.451 427.951 127.342 431.065C131.818 431.943 136.088 433.387 140.488 434.556C131.71 437.814 122.739 440.047 113.643 442.178C111.732 442.437 110.721 442.692 108.847 443.209C111.149 443.149 113.738 442.923 115.998 442.48C124.345 441.594 133.937 439.495 142.151 437.749C135.699 447.565 128.52 453.46 116.542 455.16C103.108 457.066 92.395 452.528 81.2656 445.722Z" fill="#1E1E1E"/>
<path d="M114.886 413.738C113.958 414.47 112.793 415.552 111.981 416.406C97.8811 431.274 75.1918 428.631 60.0995 416.824C58.5016 415.574 55.8948 413.912 54.876 412.126C54.9864 410.5 59.2107 407.639 60.5912 406.801C74.6919 398.225 93.1077 400.89 107.366 407.653C109.498 408.664 111.419 409.738 113.569 410.671C107.916 411.443 101.573 412.011 96.0717 412.944C92.8262 413.137 85.1941 413.341 82.2386 413.822C85.7174 414.23 89.2185 414.421 92.721 414.393C100.417 414.434 107.227 414.135 114.886 413.738Z" fill="#1E1E1E"/>
<path d="M16.8994 330.509C19.316 329.513 21.7138 328.496 24.3019 327.925C41.2059 324.2 58.7481 334.326 69.4943 346.794C69.5954 346.914 69.6126 347.164 69.6319 347.316C68.1254 348.328 46.0535 342.196 42.6343 341.361C44.6953 342.677 47.7022 343.724 50.0398 344.553C54.0272 345.97 58.044 347.305 62.0871 348.556C64.5607 349.304 68.798 350.411 70.961 351.324C69.6128 351.814 68.1926 352.349 66.9113 352.997C56.7757 358.117 43.4379 356.676 34.1841 350.261C32.546 349.198 31.559 348.51 30.0449 347.283C24.1758 342.242 20.4451 337.394 16.8994 330.509Z" fill="#1E1E1E"/>
<path d="M30.0449 347.283C31.8321 343.545 34.2349 342.547 36.9144 339.449L37.1363 339.564L36.7189 340.347C37.011 341.021 37.1336 341.013 37.7371 341.475L37.6713 341.785L36.7988 341.331L36.5821 341.611C37.1747 343.3 36.9712 343.67 38.7138 344.371C38.7543 346.101 36.154 346.098 34.8428 346.258C34.7789 347.691 34.8485 348.983 34.1841 350.261C32.546 349.198 31.559 348.51 30.0449 347.283Z" fill="#201F21"/>
<path d="M35.1844 342.808C35.2834 342.93 35.4183 343.256 35.4937 343.417C35.1665 344.491 34.446 345.048 33.6456 345.869C33.3173 345.394 33.4133 345.6 33.3535 344.991C33.7307 343.955 34.3549 343.55 35.1844 342.808Z" fill="#201F21"/>
<path d="M8.77734 284.511C25.5992 279.869 40.6701 288.717 51.2991 301.462C53.6177 304.244 55.4945 307.409 57.6048 310.359C52.4058 308.282 47.6239 306.504 42.4222 304.271C39.3173 302.822 33.6032 299.893 30.6148 298.83C33.8909 301.226 38.5349 303.741 42.1295 305.737C47.1871 308.532 52.3185 311.191 57.5178 313.712C55.0273 314.003 52.3606 314.841 49.8201 315.27C42.5911 316.494 35.1621 315.134 28.8336 311.433C19.1444 305.875 11.665 295.2 8.77734 284.511Z" fill="#1E1E1E"/>
<path d="M199.363 400.98C203.649 403.748 209.456 413.964 211.239 418.78C215.809 431.117 216.932 444.653 211.52 456.854C208.865 449.227 206.155 441.572 204.129 433.749C203.658 431.927 203.223 429.142 202.556 427.533L202.452 428.077C202.774 434.956 206.615 450.687 208.366 457.444C206.399 455.56 204.216 453.991 202.199 452.027C196.786 446.738 193.137 439.911 191.752 432.471C189.667 421.211 192.958 410.26 199.363 400.98Z" fill="#1E1E1E"/>
<path d="M33.2383 374.584C36.4457 372.439 38.4531 371.232 42.1492 369.918C52.2361 366.334 65.8081 368.395 75.2608 373.13C74.6407 373.51 74.738 373.638 74.487 374.31C73.4641 377.053 70.0582 379.278 68.1732 381.529C65.8834 381.575 63.4944 381.045 60.8734 381.143C62.3244 382.016 79.082 384.439 81.5956 384.773C83.5342 385.034 87.8069 385.162 90.0316 385.782L90.1896 386.065C89.2399 387.506 86.2993 389.227 84.7224 390.157C71.4798 397.961 55.0412 394.445 43.4606 385.282C39.872 382.443 35.5019 378.405 33.2383 374.584Z" fill="#1E1E1E"/>
<path d="M8.56152 239.161C30.751 236.966 43.2636 254.131 51.4731 272.059C47.52 269.846 43.6849 267.269 39.7612 264.987C36.7213 262.861 30.1986 258.02 27.1216 256.397C30.0199 259.189 35.312 263.489 38.5289 265.968C41.2271 268.402 47.3832 272.853 50.3948 274.798C33.5224 277.427 21.3993 270.493 13.4269 255.358C10.6094 250.009 9.61561 245.015 8.56152 239.161Z" fill="#1E1E1E"/>
<path d="M176.395 388.251C178.722 391.337 180.66 394.698 182.166 398.26C187.567 410.978 188.151 427.821 181.743 440.4C181.179 441.507 180.533 443.258 179.363 443.747C178.595 442.709 175.986 421.662 175.703 418.883C175.721 417.564 175.741 416.224 175.755 414.907C175.767 413.803 174.744 415.166 175.426 413.434L175.673 413.994L175.426 413.39C174.736 414.926 174.71 418.834 174.887 420.482C174.981 428.58 175.58 435.973 176.036 443.995C168.443 436.471 163.89 427.125 164.059 416.316C164.324 405.703 168.755 395.623 176.395 388.251Z" fill="#1E1E1E"/>
<path d="M155.057 372.191C157.246 373.627 159.836 383.623 160.269 386.304C161.988 396.955 160.775 408.555 155.766 418.211C154.113 421.398 152.028 424.256 149.958 427.182C148.784 420.512 149.817 403.848 150.482 396.694C150.196 397.706 149.917 398.717 149.645 399.734C148.238 408.142 146.857 417.901 146.735 426.336C146.098 425.444 145.471 424.544 144.857 423.636C139.385 415.5 137.421 405.504 139.408 395.906C141.231 387.068 147.556 377.154 155.057 372.191Z" fill="#1E1E1E"/>
<path d="M16.1016 194.509C24.14 195.522 28.6823 196.961 35.0247 202.264C45.4818 211.122 48.5847 220.757 51.8168 233.303C48.6878 230.612 45.5895 227.886 42.5227 225.124C39.8362 222.564 33.9844 216.458 31.4735 214.439C33.5125 217.519 38.4012 223.265 41.0682 225.884C43.5108 228.88 47.7753 233.531 50.7202 235.9C46.4592 235.683 43.4863 235.591 39.3678 234.242C30.6881 231.398 24.484 225.148 20.458 217.086C16.8557 209.961 15.9929 202.363 16.1016 194.509Z" fill="#1E1E1E"/>
<path d="M16.1016 194.509C24.14 195.522 28.6823 196.961 35.0247 202.264C33.7774 203.206 31.6239 205.251 30.5717 205.758C29.9478 205.595 29.9181 205.482 29.4139 205.052C27.3627 205.453 26.7218 208.038 26.161 209.626C25.4755 211.567 21.9783 215.584 20.458 217.086C16.8557 209.961 15.9929 202.363 16.1016 194.509Z" fill="#222122"/>
<path d="M120.329 403.81C119.475 402.04 118.638 400.313 117.958 398.511C111.25 380.719 119.43 361.926 135.883 353.062C136.416 352.774 136.348 352.833 136.911 352.896C137.977 354.09 138.396 357.018 138.746 358.658C142.016 373.994 136.286 395.231 123.251 404.716C123.806 398.856 125.544 386.978 127.205 381.458C127.648 379.669 128.577 376.607 128.472 374.924C127.825 376.743 127.129 378.595 126.642 380.458C124.379 386.891 121.579 397.045 120.329 403.81Z" fill="#1E1E1E"/>
<path d="M30.1995 153.952C50.7426 159.06 57.0467 177.808 58.4441 196.77C56.942 195.265 54.8328 192.522 53.4305 190.802C52.1153 189.2 42.7611 176.752 42.5927 176.674C42.8641 178.217 50.1127 189.704 51.4702 191.418C52.7297 193.678 55.3387 197.38 57.0606 199.241C33.8907 195.309 26.547 175.224 30.1995 153.952Z" fill="#1E1E1E"/>
<path d="M121.098 330.356C121.663 330.397 121.384 330.337 121.92 330.764C123.217 334.759 122.637 344.246 121.63 348.336C118.275 361.956 112.206 371.351 100.515 378.832C101.719 374.217 103.114 369.657 104.697 365.16C105.175 363.803 109.578 352.716 109.514 352.211L109.096 352.793C105.16 359.33 100.78 370.098 97.5566 377.26C94.5747 365.07 94.6615 354.625 102.332 344.037C107.423 337.01 113.302 333.66 121.098 330.356Z" fill="#1E1E1E"/>
<path d="M50.1552 117.342C69.5012 126.029 72.0346 143.88 70.8287 162.946C68.5623 159.524 66.9261 156.596 64.9263 153.008C62.8155 149.24 61.1356 145.696 59.1472 141.901L58.7074 141.851L59.043 141.732L58.6756 141.403C59.0044 143.249 62.434 151.899 63.4492 153.58C64.6179 156.608 67.25 162.445 68.8857 165.116C63.3975 163.019 59.2834 161.094 55.2797 156.612C45.1096 145.227 45.6951 130.915 50.1552 117.342Z" fill="#1E1E1E"/>
<path d="M107.955 303.268C108.717 303.102 108.708 303.124 109.494 303.186L109.793 303.572C109.825 308.535 108.327 315.882 106.393 320.339C100.659 333.552 93.3789 340.779 80.523 346.364C81.1652 345.231 81.7727 344.004 82.3333 342.827C85.6785 335.787 89.7084 329.277 93.8562 322.694L94.002 322.389L93.8198 322.229C90.5052 325.522 80.8853 340.078 78.1977 344.344C76.5071 322.811 86.47 307.977 107.955 303.268Z" fill="#1E1E1E"/>
<path d="M98.7919 273.936C99.7726 273.813 101.629 273.83 102.682 273.805C102.107 275.371 101.714 277.348 101.229 279.018C100.212 282.555 98.7367 285.949 96.8408 289.106C89.5252 301.397 80.2276 307.346 66.7524 310.767C71.6537 304.187 75.5396 299.357 80.9334 293.177C81.6905 292.41 82.247 291.972 82.6691 290.993C80.7525 291.589 67.1299 305.788 65.123 308.426C66.0448 288.252 78.8052 275.573 98.7919 273.936Z" fill="#222122"/>
<path d="M74.8006 85.4785C91.2383 93.7544 92.6667 117.078 87.5373 132.583C86.367 127.968 82.6298 119.06 80.8998 113.701L80.017 110.309L79.5587 110.218L79.6637 109.573L79.8345 109.82L79.5837 109.638C79.4426 111.426 79.896 112.999 80.3045 114.742C81.8621 121.266 83.5945 127.748 85.5002 134.18C78.6917 129.938 73.9006 126.052 70.9967 118.303C66.7988 107.101 69.3774 95.6274 74.8006 85.4785Z" fill="#1E1E1E"/>
<path d="M58.4209 271.384C59.7451 266.629 60.7139 263.052 63.4518 258.833C72.217 245.327 85.2564 242.158 100.347 244.085C95.4815 256.488 88.0896 264.789 75.7505 270.568C70.5014 273.027 65.1854 273.677 59.4677 274.058C63.2163 271.033 67.1197 267.042 70.9055 263.788C72.8344 262.329 74.7958 260.707 76.6915 259.19C78.2346 258.161 79.9377 256.988 81.0523 255.512C79.4806 256.41 77.9776 257.424 76.4627 258.417C75.1282 259.3 70.1864 262.53 69.3126 263.443C66.3271 265.079 61.1512 269.256 58.4209 271.384Z" fill="#1E1E1E"/>
<path d="M103.976 57.7975C115.862 66.766 116.872 84.232 112.496 97.3294C111.642 99.8862 110.543 102.312 109.4 104.748C107.777 98.5016 107.107 92.5515 105.72 86.7557L105.419 84.6122C105.263 83.4911 105.128 82.2843 104.875 81.1882L104.679 81.1825C104.38 83.1441 104.657 84.6867 104.874 86.6524C104.976 87.6305 105.069 88.9055 105.232 89.8491C105.167 93.3145 106.438 102.426 107.033 105.984C90.5699 93.796 91.6765 72.6178 103.976 57.7975Z" fill="#1E1E1E"/>
<path d="M206.065 42.9387L205.465 42.9675L205.375 42.5994C218.838 27.1361 239.2 23.8623 256.831 34.3349C244.364 44.3193 232.091 49.613 215.647 47.8599C211.874 47.4667 208.155 46.6578 204.559 45.4475C205.963 45.191 207.548 44.9852 208.848 44.4492C215.083 42.2489 221.424 40.3625 227.848 38.7976C229.907 38.4235 230.969 38.0015 232.902 37.2368C231.159 37.4679 229.128 37.7537 227.445 38.2155C221.367 39.1838 211.92 41.2395 206.065 42.9387Z" fill="#1E1E1E"/>
<path d="M58.3926 233.574C65.2237 218.353 76.9338 210.359 94.1265 212.275C97.3304 212.633 100.139 213.537 103.24 214.278C97.4081 224.766 87.6003 232.466 76.0267 235.643C71.1666 237.006 64.0512 237.599 59.0649 236.585C62.9925 233.86 66.9741 231.411 70.9939 228.833C72.3298 228.33 81.1262 223.294 82.3028 222.478C77.8985 224.098 73.4 226.246 69.1679 228.255C65.793 229.926 61.768 232.052 58.3926 233.574Z" fill="#1E1E1E"/>
<path d="M135.19 36.1097C146.375 48.6545 143.713 67.7382 134.412 80.7906C134.314 80.9279 133.769 81.2529 133.63 81.3358C133.221 79.2589 132.965 70.3298 132.888 67.9119C133.018 65.9704 132.692 60.4667 132.622 58.2685C132.273 60.4667 131.815 63.4957 131.904 65.7085C131.198 71.2119 131.216 77.5159 130.969 83.0935C124.924 75.9858 121.731 70.0688 122.536 60.3449C123.255 51.6592 128.308 41.5277 135.19 36.1097Z" fill="#1E1E1E"/>
<path d="M64.1397 198.353C70.0417 189.684 75.3507 184.736 86.1893 182.358C93.2581 180.807 103.711 182.611 109.87 186.5C110.037 186.931 110.107 187.111 109.803 187.554C105.603 193.662 96.9178 198.707 90.3728 200.924C81.8804 203.806 72.691 203.911 64.1348 201.225C70.1522 198.661 75.664 196.209 81.8432 193.981C84.0576 193.311 85.4226 192.884 87.5231 191.96L87.3542 191.831C84.7661 192.19 82.7127 192.801 80.2103 193.49C74.9122 194.957 69.3085 196.487 64.1397 198.353Z" fill="#1E1E1E"/>
<path d="M75.0781 165.207C78.8841 161.607 82.107 158.416 86.9421 156.168C99.6819 150.247 111.375 153.201 122.17 161.289C107.651 172.958 92.2905 175.883 75.1187 167.938C80.337 166.535 85.5915 165.271 90.877 164.148C92.5113 164.03 97.9233 162.874 99.7809 162.522C95.8329 162.313 89.9344 163.056 85.9192 163.691C82.4222 163.912 78.5259 164.591 75.0781 165.207Z" fill="#1E1E1E"/>
<path d="M167.321 20.0665C167.736 20.0343 168.28 20.0976 168.547 20.4814C177.309 33.0696 170.956 54.4293 159.978 63.878C160.769 60.0809 160.871 53.9047 161.388 49.8096C161.65 47.7403 162.487 42.8142 162.519 41.2234C162.281 41.342 161.776 43.0227 161.639 43.4121C160.63 49.3792 157.953 58.699 157.843 64.6124C156.77 63.0739 155.694 61.7064 154.839 60.0221C147.238 45.0524 154.836 29.1866 167.321 20.0665Z" fill="#1E1E1E"/>
<path d="M91.3957 134.936C95.4467 131.951 98.3669 129.727 103.269 128.22C117.036 123.988 127.324 128.537 137.217 137.902C128.536 144.062 117.305 146.249 106.874 144.475C101.033 143.509 95.5433 141.039 90.9453 137.31C93.272 137.256 95.3513 137.125 97.6734 136.946C101.566 136.46 105.572 136.341 109.49 136.206C110.701 136.239 115.809 136.486 116.604 136.135C115.721 135.459 112.771 135.378 111.61 135.431C108.022 135.322 104.821 134.953 101.107 134.952C97.8708 134.848 94.6322 134.843 91.3957 134.936Z" fill="#1E1E1E"/>
<path d="M184.707 50.627C183.294 47.3207 181.966 44.393 181.503 40.7748C179.671 26.4599 188.659 15.1118 200.703 8.70589C204.422 15.8304 204.075 22.2278 202.021 29.877C200.473 35.6393 193.087 47.0493 187.988 49.6573L187.425 49.6122C187.413 49.3895 190.959 34.8015 191.309 33.803C191.929 31.7424 192.497 29.6663 193.012 27.5766C191.837 29.6255 191.293 31.3051 190.514 33.5297C188.446 39.2395 186.668 44.9014 184.707 50.627Z" fill="#1E1E1E"/>
<path d="M112.14 107.669C127.594 97.9706 146.185 101.978 155.862 117.562C138.074 123.828 125.573 122.459 111.167 110.044C117.231 110.145 123.283 110.636 129.285 111.513L132.246 111.897C133.432 112.187 134.091 112.413 135.323 112.393L135.506 112.127C134.636 111.514 133.587 111.467 132.502 111.286L130.548 110.839C126.405 109.986 122.297 109.096 118.131 108.352C115.99 107.97 114.125 107.944 112.14 107.669Z" fill="#1E1E1E"/>
<path d="M135.151 84.5706C137.709 83.8701 140.396 83.0372 142.99 82.5584C157.74 79.8348 170.104 87.2515 176.364 100.449C160.236 104.607 144.506 100.698 134.407 86.9298C140.007 88.1162 145.079 89.1818 150.597 90.7598C152.716 91.4771 155.729 92.263 157.931 92.9014C156.277 91.711 153.626 90.8457 151.704 90.1866C146.264 88.0941 140.741 86.2206 135.151 84.5706Z" fill="#1E1E1E"/>
<path d="M176.759 73.8604C172.725 71.7316 166.271 68.006 162.14 66.7318L162.123 66.3603C163.766 64.992 170.787 64.9126 173.08 65.1136C180.697 65.7447 187.727 69.4537 192.547 75.384C196.723 80.4306 196.38 82.1695 198.777 87.0372C192.92 87.3374 188.377 87.5832 182.611 85.9927C172.107 83.0943 164.857 77.3688 159.827 67.8094C164.318 70.1085 171.02 72.0432 176.389 74.6167C178.201 75.5072 180.294 76.3939 182.152 77.232C180.309 75.8109 178.801 74.9487 176.759 73.8604Z" fill="#1E1E1E"/>
<path d="M187.842 52.0812C205.627 50.7252 217.832 59.2822 221.252 77.0234C204.625 76.6025 192.364 69.1897 186.216 53.5121C188.444 54.9511 190.279 55.8582 192.634 57.0449C197.08 59.5039 201.637 62.6927 205.914 64.9401C202.913 62.049 196.757 57.859 193.177 55.4979C191.467 54.1231 189.775 53.1213 187.842 52.0812Z" fill="#1E1E1E"/>
<path d="M75.2614 373.13C81.8965 376.333 84.5833 378.152 90.32 382.679C83.546 381.929 75.0142 382.688 68.1738 381.529C70.0589 379.278 73.4648 377.053 74.4877 374.31C74.7387 373.638 74.6413 373.51 75.2614 373.13Z" fill="#201F21"/>
<path d="M227.444 38.2155L227.848 38.5091L227.847 38.7976C221.423 40.3625 215.082 42.2489 208.847 44.4492C207.507 43.8507 208.044 43.8739 207.088 43.1981L207.431 43.2805L207.428 43.0597L206.064 42.9387C211.919 41.2395 221.366 39.1838 227.444 38.2155Z" fill="#201F21" fill-opacity="0.0117647"/>
<path d="M157.226 66.5991C162.577 63.416 182.513 52.0046 187.686 51.201L187.693 51.3544L187.245 51.2723L187.676 51.381C186.349 52.2618 185.319 52.7738 183.86 53.3685C174.666 57.1129 166.403 62.3492 157.864 67.3104L157.226 66.5991Z" fill="#201F21" fill-opacity="0.862745"/>
<path d="M101.107 134.952C104.821 134.953 108.022 135.322 111.61 135.431L113.037 135.807C111.791 136.093 111.038 135.818 109.49 136.206C105.572 136.341 101.566 136.46 97.6735 136.946L96.931 136.448C95.4906 136.514 94.7128 136.833 93.8096 135.638C94.7286 135.319 99.4745 135.443 100.892 135.367L101.107 134.952Z" fill="#201F21" fill-opacity="0.0196078"/>
<path d="M51.4702 191.418C50.1128 189.704 42.8642 178.217 42.5928 176.674C42.7611 176.752 52.1154 189.2 53.4306 190.802L51.9785 190.696C51.6522 191.072 51.6903 190.98 51.4702 191.418Z" fill="#201F21" fill-opacity="0.0352941"/>
<path d="M193.176 55.4979C196.757 57.859 202.912 62.049 205.913 64.9401C201.637 62.6927 197.08 59.5039 192.634 57.0449L192.913 56.8423C192.864 56.1152 192.872 56.1663 193.176 55.4979Z" fill="#201F21" fill-opacity="0.0196078"/>
<path d="M31.4736 214.439C33.9845 216.458 39.8362 222.564 42.5228 225.124C41.671 225.343 41.6965 225.287 41.0683 225.884C38.4013 223.265 33.5126 217.519 31.4736 214.439Z" fill="#1E1E1E" fill-opacity="0.0431373"/>
<path d="M27.1221 256.397C30.199 258.02 36.7218 262.861 39.7616 264.987C39.1578 265.568 39.2446 265.572 38.5293 265.968C35.3124 263.489 30.0203 259.189 27.1221 256.397Z" fill="#201F21" fill-opacity="0.0392157"/>
<path d="M63.4494 153.58C62.4342 151.899 59.0046 143.249 58.6758 141.403L59.0432 141.732L58.7076 141.851L59.1474 141.901C61.1358 145.696 62.8157 149.24 64.9265 153.008L64.372 153.449L63.7092 153.131L63.4494 153.58Z" fill="#201F21" fill-opacity="0.0431373"/>
<path d="M82.3029 222.478C81.1263 223.294 72.3299 228.33 70.994 228.833C70.2706 228.726 69.8547 228.514 69.168 228.255C73.4001 226.246 77.8986 224.098 82.3029 222.478Z" fill="#1E1E1E" fill-opacity="0.0235294"/>
<path d="M30.6152 298.83C33.6037 299.893 39.3178 302.822 42.4227 304.271C42.3544 304.937 42.3808 305.125 42.13 305.737C38.5353 303.741 33.8914 301.226 30.6152 298.83Z" fill="#201F21" fill-opacity="0.0470588"/>
<path d="M188.071 480.09L189.287 481.052C185.563 482.947 181.414 485.139 177.543 486.602C180.331 484.519 184.96 481.939 188.071 480.09Z" fill="#201F21" fill-opacity="0.0117647"/>
<path d="M82.2383 413.822C85.1938 413.341 92.8259 413.137 96.0714 412.944L96.2318 413.589C94.9922 414.353 93.214 413.491 92.3695 414.045L92.7206 414.393C89.2182 414.421 85.7171 414.23 82.2383 413.822Z" fill="#201F21" fill-opacity="0.0352941"/>
<path d="M85.9189 163.691C89.9341 163.056 95.8326 162.313 99.7806 162.522C97.923 162.874 92.511 164.03 90.8767 164.148C89.3398 163.626 87.6691 163.826 85.9189 163.691Z" fill="#201F21" fill-opacity="0.0470588"/>
<path d="M76.4627 258.417L76.6914 259.19C74.7957 260.707 72.8343 262.329 70.9054 263.788L70.4635 263.578L69.8031 263.826L69.3125 263.443C70.1863 262.53 75.1281 259.3 76.4627 258.417Z" fill="#1E1E1E" fill-opacity="0.0392157"/>
<path d="M202.338 45.1133L203.024 45.265L203.066 45.5407C200.538 46.7342 196.252 47.7901 194.294 49.2217C193.512 49.0499 193.775 49.2601 193.321 48.7722C194.452 47.5695 200.35 46.0791 202.338 45.1133Z" fill="#4B494C" fill-opacity="0.447059"/>
<path d="M151.126 463.712C151.137 464.272 151.06 464.402 151.266 464.854C149.591 465.596 148.127 465.819 146.687 466.398L144.873 466.173L151.126 463.712Z" fill="#1E1E1E" fill-opacity="0.0156863"/>
<path d="M131.905 65.7085C131.816 63.4957 132.274 60.4667 132.622 58.2685C132.692 60.4667 133.018 65.9704 132.889 67.9119C132.393 67.2057 133.017 66.9235 131.905 65.7085Z" fill="#1E1E1E" fill-opacity="0.219608"/>
<path d="M80.21 193.49C82.7124 192.801 84.7658 192.19 87.3539 191.831L87.5228 191.96C85.4223 192.884 84.0573 193.311 81.8429 193.981C81.2046 193.53 80.9913 193.583 80.21 193.49Z" fill="#201F21" fill-opacity="0.0705882"/>
<path d="M151.705 90.1866C153.626 90.8457 156.277 91.711 157.931 92.9014C155.729 92.2629 152.716 91.4771 150.598 90.7598L151.705 90.1866Z" fill="#201F21" fill-opacity="0.0784314"/>
<path d="M174.887 420.482C174.709 418.834 174.736 414.926 175.426 413.39L175.673 413.994L175.425 413.434C174.743 415.166 175.766 413.803 175.755 414.907C175.741 416.224 175.721 417.564 175.703 418.883L175.255 417.153L175.377 417.423L175.134 417.578C175.084 418.519 175.065 419.565 174.887 420.482Z" fill="#1E1E1E" fill-opacity="0.643137"/>
<path d="M111.61 135.431C112.772 135.378 115.722 135.459 116.604 136.135C115.809 136.486 110.701 136.239 109.49 136.206C111.039 135.818 111.792 136.093 113.038 135.807L111.61 135.431Z" fill="#201F21" fill-opacity="0.337255"/>
<path d="M190.514 33.5297C191.293 31.3051 191.837 29.6255 193.012 27.5766C192.497 29.6663 191.929 31.7424 191.309 33.803L190.514 33.5297Z" fill="#1E1E1E" fill-opacity="0.152941"/>
<path d="M128.472 374.924C128.577 376.607 127.648 379.669 127.205 381.458L126.642 380.458C127.129 378.595 127.825 376.743 128.472 374.924Z" fill="#1E1E1E" fill-opacity="0.211765"/>
<path d="M80.3047 114.742C79.8962 112.999 79.4428 111.426 79.5839 109.638L79.8347 109.82L79.6639 109.573L79.5589 110.218L80.0172 110.309L80.9 113.701L80.3047 114.742Z" fill="#1E1E1E" fill-opacity="0.160784"/>
<path d="M176.759 73.8605C178.801 74.9487 180.309 75.8109 182.152 77.232C180.294 76.3939 178.201 75.5072 176.39 74.6167L176.759 73.8605Z" fill="#201F21" fill-opacity="0.117647"/>
<path d="M104.874 86.6524C104.657 84.6867 104.38 83.1441 104.679 81.1825L104.875 81.1882C105.128 82.2843 105.263 83.4911 105.419 84.6122C104.963 85.5797 104.997 85.5699 104.874 86.6524Z" fill="#1E1E1E" fill-opacity="0.2"/>
<path d="M81.0524 255.512C79.9379 256.988 78.2348 258.161 76.6916 259.19L76.4629 258.417C77.9778 257.424 79.4807 256.41 81.0524 255.512Z" fill="#1E1E1E" fill-opacity="0.384314"/>
<path d="M108.847 443.209C110.721 442.692 111.732 442.437 113.643 442.178C114.408 442.293 115.231 442.445 115.998 442.48C113.738 442.923 111.149 443.149 108.847 443.209Z" fill="#222122" fill-opacity="0.188235"/>
<path d="M227.444 38.2155C229.127 37.7537 231.158 37.4679 232.901 37.2368C230.969 38.0015 229.907 38.4235 227.847 38.7976L227.849 38.5091L227.444 38.2155Z" fill="#222122" fill-opacity="0.329412"/>
<path d="M132.503 111.286C133.588 111.467 134.637 111.514 135.506 112.127L135.324 112.393C134.092 112.413 133.433 112.187 132.247 111.897L132.625 111.697L132.503 111.286Z" fill="#201F21" fill-opacity="0.439216"/>
<path d="M104.873 86.6524C104.996 85.5699 104.963 85.5797 105.418 84.6122L105.72 86.7557C105.06 87.6566 105.344 88.6907 105.231 89.8491C105.069 88.9056 104.975 87.6305 104.873 86.6524Z" fill="#201F21" fill-opacity="0.0666667"/>
<path d="M130.548 110.839L132.502 111.286L132.624 111.697L132.246 111.897L129.285 111.513L130.548 110.839Z" fill="#201F21" fill-opacity="0.0705882"/>
<path d="M141.365 467.78C142.614 467.103 143.493 466.545 144.873 466.173L146.687 466.398L141.365 467.78Z" fill="#201F21" fill-opacity="0.235294"/>
</g>
<defs>
<clipPath id="clip0_3274_1789">
<rect width="273" height="521" fill="white"/>
</clipPath>
</defs>
</svg>
