<svg width="34" height="34" viewBox="0 0 34 34" fill="none" xmlns="http://www.w3.org/2000/svg">
<path d="M16.9993 7.79163C15.4778 6.96146 13.3401 5.66663 11.3327 5.66663C8.35768 5.66663 5.66602 7.43321 5.66602 12.75C5.66602 19.6902 7.16202 24.6641 9.44993 27.6774C10.2617 28.7484 12.2408 28.4155 13.0865 27.343C13.6503 26.6276 14.2468 25.3045 14.8743 23.375C15.288 22.2827 16.138 21.2443 16.9993 21.25C17.8522 21.25 18.7135 22.294 19.1243 23.375C19.7519 25.3045 20.3483 26.6262 20.9122 27.3416C21.7579 28.4169 23.7455 28.7484 24.5488 27.6774C26.8367 24.6641 28.3327 19.6916 28.3327 12.75C28.3327 7.45163 25.6297 5.66663 22.666 5.66663C20.6501 5.66663 18.5293 6.95721 16.9993 7.79163Z" stroke="#073677" stroke-width="2" stroke-linecap="round" stroke-linejoin="round"/>
<path d="M17 7.79163L21.25 9.91663" stroke="#073677" stroke-width="2" stroke-linecap="round" stroke-linejoin="round"/>
</svg>
