<svg width="281" height="521" viewBox="0 0 281 521" fill="none" xmlns="http://www.w3.org/2000/svg">
<g clip-path="url(#clip0_3274_1940)">
<path d="M111.11 64.9812C119.574 70.2105 128.018 75.6837 135.84 81.8451C174.885 112.408 202.517 155.21 214.293 203.371C228.384 261.385 218.585 322.626 187.094 373.35C155.811 423.492 106.059 459.32 48.5806 473.101C41.9988 474.632 34.8133 476.081 28.0847 476.867C26.2081 475.546 24.6279 473.868 24.3614 471.549C23.6135 465.074 28.5063 464.96 32.9693 464.402C40.1657 463.505 47.0602 461.955 53.9384 460.188C66.1799 456.998 78.1141 452.737 89.6077 447.451C91.1552 446.736 95.0743 444.93 96.3118 443.973C96.9808 436.449 97.1086 431.062 97.4051 423.704C97.9626 421.366 97.7967 413.89 97.4812 411.392C97.2474 413.086 97.0733 414.445 96.9699 416.147C96.8693 417.156 96.5212 420.226 96.6055 421.129C95.6645 429.055 94.7398 436.811 92.7108 444.541C89.0691 437.493 86.9858 432.158 86.2814 424.158C85.2071 411.963 88.3647 397.749 96.2383 388.172C98.9499 391.316 101.196 394.027 103.255 397.687C112.374 413.869 109.233 431.821 95.8331 444.373C99.1947 442.904 103.337 440.528 106.533 438.7C120.784 430.565 134.053 420.819 146.083 409.657C147.989 407.859 150.821 405.254 152.439 403.272C151.816 401.869 151.43 400.534 150.967 399.073C150.785 395.636 146.241 381.91 144.916 377.885C144.571 376.509 144.16 375.449 143.3 374.291C143.785 375.979 144.242 377.676 144.674 379.378C146.159 384.063 148.846 399.122 149.064 404.06C146.632 404.727 139.145 392.904 138.119 390.864C132.18 378.908 131.141 365.105 135.228 352.396C150.81 359.427 159.986 377.831 155.779 394.193C155.308 396.023 152.868 401.219 153.23 402.505C154.019 402.165 156.581 399.207 157.315 398.413C167.207 387.862 175.989 376.325 183.52 363.977C213.584 314.582 222.643 255.218 208.683 199.107C194.831 143.702 159.782 95.9469 111.074 66.1164L111.11 64.9812Z" fill="#1E1E1E"/>
<path d="M67.822 468.201C72.8671 468.519 77.6484 468.481 82.6771 469.275C100.891 472.144 116.886 480.196 122.934 498.46C108.376 501.96 95.0845 502.906 81.5267 494.8C71.9423 489.071 67.6805 481.275 65.0098 470.76C69.1764 473.294 77.6946 478.561 82.0842 480.438C85.6117 482.54 92.1907 485.669 96.0119 487.07C91.9432 484.402 86.7757 481.479 82.5194 478.893C79.4162 476.759 70.2425 470.67 67.822 468.201Z" fill="#1E1E1E"/>
<path d="M113.696 452.588C119.829 452.079 129.958 453.39 135.702 455.312C146.719 458.999 153.984 464.34 159.303 474.621C143.953 481.645 127.368 483.366 112.524 474.194C105.252 469.224 102.556 464.392 98.8848 456.802C107.95 460.345 121.018 465.558 130.48 467.434C129.155 466.765 127.461 466.018 126.049 465.52C117.441 462.488 109.5 457.846 101.164 454.32C105.649 453.333 109.152 452.99 113.696 452.588Z" fill="#1E1E1E"/>
<path d="M131.964 434.518C147.499 429.539 163.929 427.002 179.138 434.793C180.887 435.81 182.842 436.941 184.403 438.238C187.479 440.705 188.834 442.418 191.325 445.428C176.26 455.606 157.067 459.984 141.029 449.428C135.979 446.105 133.623 442.434 130.109 437.692C141.149 439.731 151.301 442.35 162.754 443.035C160.339 442.225 155.96 441.452 153.235 440.754C146.09 438.918 138.883 437.123 131.964 434.518Z" fill="#1E1E1E"/>
<path d="M179.138 434.793C180.887 435.81 182.842 436.941 184.403 438.238C184.077 438.779 180.18 442.453 179.372 443.25C179.255 443.356 178.657 443.878 178.58 443.984C177.071 445.403 176.818 444.819 174.876 445.39C173.685 445.74 175.344 446.874 174.582 448.204L173.712 448.218C172.812 447.685 171.115 445.749 170.299 444.879C172.787 441.308 177 439.089 179.138 434.793Z" fill="#201F21"/>
<path d="M178.581 443.984C177.841 443.38 177.169 442.79 177.085 441.803L177.479 441.55C178.472 441.866 178.698 442.374 179.372 443.25C179.255 443.356 178.657 443.878 178.581 443.984Z" fill="#222122"/>
<path d="M169.418 445.583L169.818 445.735C170.408 447.326 171.759 449.792 171.322 451.157L170.652 451.41C169.159 450.151 168.447 449.392 167.125 447.932L169.418 445.583Z" fill="#201F21"/>
<path d="M158.945 410.924C169.535 403.62 187.091 399.46 199.727 402.135C207.959 403.878 211.903 406.375 218.052 411.644C213.589 416.966 203.684 422.75 197.1 424.642C180.909 429.292 169.163 425.697 157.821 413.695C162.507 414.016 179.277 414.807 183.379 414.16L184.945 414.168C187.211 414.255 189.506 413.852 191.755 413.542C189.405 413.265 186.172 413.205 183.822 413.325C181.926 413.181 180.028 413.061 178.129 412.963C173.887 412.346 162.842 410.94 158.945 410.924Z" fill="#1E1E1E"/>
<path d="M182.002 382.291C199.642 369.529 219.118 361.483 239.244 374.592C231.256 384.73 221.096 392.422 207.965 394.086C198.764 395.253 187.888 392.205 181.36 385.412C188.962 385.034 195.884 384.004 203.404 382.707C206.11 382.277 209.352 381.836 211.889 380.858C209.123 380.961 205.813 381.358 203.015 381.622C196.025 382.182 189.014 382.405 182.002 382.291Z" fill="#1E1E1E"/>
<path d="M201.426 347.876C216.58 331.955 233.285 321.584 255.323 330.411C254.243 332.464 253.201 334.359 251.966 336.273C241.471 352.556 221.201 361.896 203.126 351.895C202.799 351.716 202.625 351.528 202.361 351.278L202.318 350.816C203.286 350.223 208.432 348.991 209.868 348.54C212.881 347.593 215.881 346.628 218.884 345.6C220.975 344.855 227.75 342.56 229.455 341.519L229.289 341.424L229.325 341.579C228.438 341.366 220.627 343.656 219.283 344.132C213.463 345.418 207.129 346.508 201.426 347.876Z" fill="#1E1E1E"/>
<path d="M214.416 310.381L214.653 310.101C216.847 307.455 218.438 304.325 220.641 301.62C228.229 292.296 239.04 284.53 251.287 283.309C255.935 282.846 258.911 283.485 263.412 284.309C259.196 299.648 246.993 313.805 230.566 315.48C224.784 316.07 220.454 314.884 214.941 313.546C220.65 310.449 226.293 307.776 232.089 304.521C234.422 303.213 238.766 300.867 240.572 299.151C238.442 300.124 233.239 302.395 231.461 303.534L214.416 310.381Z" fill="#222122"/>
<path d="M237.259 304.2C238.986 304.975 241.015 307.512 239.753 309.484C238.869 308.706 236.94 307.205 236.579 306.134C236.288 305.266 236.766 304.921 237.259 304.2Z" fill="#201F21"/>
<path d="M60.5529 456.984C59.4623 453.354 58.4397 450.056 57.874 446.271C56.1742 434.883 58.679 422.652 64.1239 412.563C65.9135 409.251 70.1373 403.16 73.1181 400.863C85.5146 418.818 84.2064 441.526 66.5499 455.407C65.8945 455.921 65.4811 456.106 64.7005 456.06C64.6461 455.829 69.169 434.869 69.5906 432.036C69.9768 429.719 70.3439 427.397 70.6921 425.069C69.8598 427.495 69.4818 428.83 68.9542 431.345C67.2815 437.917 63.648 450.989 60.5529 456.984Z" fill="#1E1E1E"/>
<path d="M220.527 272.005L220.726 271.669C222.57 268.504 223.756 265.005 225.63 261.773C231.384 251.862 240.311 243.077 251.625 240.037C255.908 238.886 259.365 238.923 263.714 239.12C262.46 245.096 261.359 250.397 258.44 255.854C250.414 270.856 238.331 277.25 221.637 274.806C224.123 273.226 232.693 267.051 234.708 265.001C235.992 264.215 240.523 260.3 241.831 259.186C243.37 258.076 244.072 257.306 245.391 255.945C243.854 256.869 242.976 257.417 241.559 258.511C238.91 260.417 236.247 262.304 233.571 264.171C229.812 266.558 224.468 270.012 220.527 272.005Z" fill="#1E1E1E"/>
<path d="M220.273 233.219C224.921 214.059 234.392 196.418 256.119 194.752C255.706 207.55 253.71 218.366 243.905 227.675C237.185 234.053 230.209 235.465 221.337 235.989C224.391 233.509 230.07 227.119 232.871 223.876C234.74 222.246 239.461 216.145 240.916 214.092C238.969 215.654 234.038 220.897 231.879 222.994C228.161 226.45 224.258 230.067 220.273 233.219Z" fill="#1E1E1E"/>
<path d="M117.071 371.852C121.442 375.136 125.655 379.677 128.489 384.349C133.545 392.569 135.068 402.483 132.715 411.84C132.046 414.529 128.524 423.758 126.381 425.036L125.957 424.816C125.5 422.943 125.184 417.599 124.967 415.383C124.491 410.796 123.881 406.222 123.139 401.668C123.071 400.808 122.84 399.704 122.685 398.834C122.63 398.092 122.682 397.045 122.173 396.569C121.863 398.38 122.1 399.375 122.366 401.192C122.418 402.323 122.483 405.037 122.693 406.032L122.734 426.913C118.719 422.883 115.415 416.316 113.715 410.948C109.627 397.986 110.832 383.93 117.071 371.852Z" fill="#1E1E1E"/>
<path d="M221.898 186.828C220.764 188.284 215.098 195.774 213.942 196.031C213.363 194.84 214.47 187.631 214.78 185.975C216.975 174.269 223.758 161.928 234.835 156.549C237.104 155.473 239.486 154.658 241.937 154.121C243.443 166.322 243.364 177.5 235.434 187.815C230.008 194.871 223.695 197.712 215.204 199.282C217.698 196.27 220.815 191.283 223.007 187.895C224.15 186.171 229.303 178.167 229.342 176.644C226.899 180.068 224.419 183.463 221.898 186.828Z" fill="#222122"/>
<path d="M150.266 330C170.96 337.897 181.263 355.033 174.613 376.8C173.639 374.696 169.774 365.249 168.863 364.121C167.857 361.48 164.305 354.326 162.714 352.015C162.861 353.089 166.361 361.883 166.924 362.816C168.05 366.228 170.906 376.08 172.162 378.75C161.58 372.898 154.721 362.62 151.43 351.158C149.241 343.536 149.347 337.666 150.266 330Z" fill="#1E1E1E"/>
<path d="M221.019 117.98L221.68 118.097C223.121 119.959 223.872 124.425 224.285 126.688C226.581 139.207 223.14 153.08 212.346 160.703C209.259 162.884 206.64 163.949 203.172 165.387C206.61 159.191 210.148 150.269 212.808 143.641C213.406 142.257 213.518 141.655 213.828 140.219C209.398 148.651 206.139 155.025 201.252 163.45C200.858 158.325 200.439 153.837 201.043 148.669C202.617 135.165 208.337 123.745 221.019 117.98Z" fill="#1E1E1E"/>
<path d="M162.412 302.873C183.544 306.202 196.828 322.563 193.798 344.039C191.807 340.461 189.098 336.643 186.762 333.222C185.114 330.628 182.179 326.851 180.264 324.371C179.438 322.957 178.206 321.802 177.066 320.613C177.92 322.093 178.611 323.371 179.669 324.722C181.173 327.102 183.582 331.319 185.078 333.407C187.368 337.625 189.52 342.343 191.861 346.362C173.169 338.316 163.386 323.039 162.412 302.873Z" fill="#1E1E1E"/>
<path d="M169.598 273.805C178.907 273.851 186.629 275.627 194.214 281.479C201.541 287.132 205.691 295.542 206.891 304.638C207.01 305.552 207.108 306.542 206.518 307.276C205.049 306.332 199.953 300.576 198.136 298.816C195.383 295.98 191.853 292.508 188.81 290.052L188.589 290.158L188.573 289.878L188.173 289.731L188.165 289.723C189.881 291.814 195.266 298.248 196.999 299.722C199.844 303.325 202.781 307.474 205.816 310.822C185.644 305.699 174.577 293.963 169.598 273.805Z" fill="#1E1E1E"/>
<path d="M184.61 132.898C180.708 124.082 180.841 109.846 184.439 100.933C187.11 94.317 191.078 89.3156 197.23 85.7015C203.409 97.9804 206.137 111.413 198.332 123.861C195.163 128.916 191.625 131.334 186.577 134.342C188.774 126.886 190.733 119.361 192.446 111.78C192.876 110.298 193.047 108.524 193.248 106.976C192.636 108.67 192.193 109.784 191.872 111.561C190.724 115.269 189.49 118.95 188.171 122.601C187.104 125.491 185.141 130.053 184.61 132.898Z" fill="#1E1E1E"/>
<path d="M171.844 244.127C193.207 241.082 208.209 250.303 213.646 271.341C211.114 269.367 205.421 264.789 202.726 263.323C200.08 261.286 194.026 257.149 191.029 255.727C192.601 257.02 199.729 262.806 201.146 263.612C204.097 266.346 209.613 271.684 212.672 273.903C193.623 273.449 178.447 261.848 171.844 244.127Z" fill="#1E1E1E"/>
<path d="M162.643 105.715C161.508 102.77 160.157 99.7848 159.208 96.7385C155.307 84.1891 156.444 67.2778 167.625 58.7395C168.373 58.1693 169.6 60.265 169.983 60.7963C177.824 71.6514 180.378 87.708 172.355 99.1782C170.157 102.328 167.894 104.308 164.916 106.684C165.879 101.695 166.423 96.196 166.777 91.1255C167.364 88.8468 167.601 81.8253 167.5 79.5675L166.108 88.0974C165.115 94.2689 163.63 99.877 162.643 105.715Z" fill="#1E1E1E"/>
<path d="M15.8398 35.2102C26.7432 27.1335 43.252 27.5061 54.9332 33.5882C57.7236 35.0411 65.774 40.8202 66.7286 43.7009L66.492 43.9962L65.3524 43.7961C59.399 42.0871 52.3168 40.5708 46.2382 39.2409C44.1821 38.8602 42.0743 38.4409 40.0101 38.1559C41.2149 38.9415 43.7551 39.4913 45.2319 39.8644C51.8028 41.6438 56.9077 43.3994 63.2882 45.4257L66.8728 46.6439C47.5681 51.1602 31.035 48.8312 15.8398 35.2102Z" fill="#1E1E1E"/>
<path d="M168.996 214.437C188.758 208.48 205.212 214.084 213.684 233.673C209.762 231.726 206.101 229.825 202.111 227.971C198.513 226.263 193.748 223.899 189.979 222.661C192.679 224.679 198.372 227.366 201.559 229.274C205.519 231.608 209.373 234.111 213.115 236.779C205.294 237.275 201.021 237.412 193.327 234.82C183.742 231.593 173.427 223.674 168.996 214.437Z" fill="#222122"/>
<path d="M136.914 36.6772C148.231 46.143 154.046 64.585 145.647 77.6782C144.279 79.8101 142.533 81.8538 141.034 83.9392C140.877 76.1381 140.477 68.3435 139.835 60.5671C139.857 59.7883 139.919 59.4767 139.645 58.7354C139.071 60.2136 139.136 63.5133 139.329 65.0983C139.196 69.7215 138.47 79.1901 138.695 82.9608C128.54 70.2523 125.502 49.6432 136.914 36.6772Z" fill="#1E1E1E"/>
<path d="M177.155 182.028C191.083 181.537 200.224 186.886 207.815 198.396C202.011 196.486 188.915 192.416 183.052 191.624C187.738 193.574 193.158 195.156 198.138 197.179C201.266 198.527 204.717 199.894 207.654 201.552C200.646 203.042 196.237 203.965 188.948 202.871C178.842 201.356 167.636 195.367 161.571 187.018C166.323 184.143 171.653 182.559 177.155 182.028Z" fill="#1E1E1E"/>
<path d="M104.21 20.3249C118.366 30.2041 126.033 48.3934 115.282 63.8116C114.846 64.4357 114.895 64.3987 114.232 64.4447C113.81 61.2515 113.465 58.3822 112.763 55.2353C112.225 51.5651 111.237 47.4744 110.394 43.8521C110.209 42.8406 110.177 42.3669 109.752 41.4462C109.393 42.8387 109.883 44.6138 110.19 46.0237C110.702 49.9918 111.039 53.9594 111.496 57.9303C111.55 60.1176 111.8 62.3443 112.007 64.5265C101.153 53.1931 94.2444 34.3594 104.21 20.3249Z" fill="#1E1E1E"/>
<path d="M150.026 161.564C161.387 151.154 179.878 150.61 191.597 160.568C193.371 162.074 194.992 163.655 196.653 165.279C194.11 164.882 191.478 164.417 188.921 164.231C185.22 163.379 179.176 163.496 175.818 162.619C173.753 162.094 171.471 162.292 169.342 162.402C170.451 162.628 172.967 163.195 174.033 163.108C176.372 163.553 181.456 164.685 183.601 164.914C188.054 165.911 192.718 166.891 197.004 168.44C191.165 170.007 189.06 172.018 182.165 172.443C169.451 173.228 159.573 169.665 150.026 161.564Z" fill="#1E1E1E"/>
<path d="M134.97 138.586C139.131 133.059 147.018 128.511 153.809 127.509C165.183 125.83 171.806 128.926 180.642 135.145C176.152 134.939 171.425 135.249 166.937 135.49C164.683 135.601 162.578 135.712 160.326 135.933C158.482 135.92 157.628 136.093 155.816 136.41L155.708 136.575C157.247 136.75 165.474 136.89 167.109 136.744C169.157 136.866 179.293 137.249 180.177 138.149L179.995 138.655C176.247 140.949 172.782 143.01 168.55 144.015C155.504 147.113 146.14 145.033 134.97 138.586Z" fill="#1E1E1E"/>
<path d="M116.177 117.754C119.707 113.615 121.173 110.905 126.006 107.826C137.82 100.301 148.264 102.118 160.079 107.811C155.678 108.336 150.625 109.401 146.292 110.373C143.254 110.873 139.362 111.602 136.55 112.816C140.002 112.332 143.722 111.738 147.163 111.357C151.585 110.781 156.26 110.736 160.873 110.115C157.217 114.105 152.667 117.171 147.595 119.061C136.983 123.082 126.425 122.314 116.177 117.754Z" fill="#1E1E1E"/>
<path d="M121.42 82.4779C124.134 82.3104 134.132 83.2075 135.603 85.3244C135.16 85.8649 118.333 91.2642 115.733 92.7141L115.434 92.8854C119.486 91.9214 123.623 90.6026 127.719 89.6397C131.094 88.8471 134.524 88.2475 137.847 87.3523C135.209 90.8694 133.177 93.0246 129.653 95.5994C129.111 96.0027 128.556 96.3836 127.983 96.7418C117.533 103.206 107.324 103.835 95.7021 100.998C101.751 89.5114 108.458 84.2209 121.42 82.4779Z" fill="#1E1E1E"/>
<path d="M73.6699 87.6343C75.2936 81.409 78.8564 75.8607 83.839 71.7906C92.4387 64.8699 100.753 65.2903 110.87 66.3794C106.152 69.0159 100.949 71.5252 96.1294 74.1427C94.2882 75.1203 93.2601 75.6823 91.582 76.8842C92.6346 76.7572 95.9608 75.1407 97.1058 74.6129C101.814 72.3518 107.269 70.5917 112.195 68.5607C104.338 83.5142 89.9992 89.2294 73.6699 87.6343Z" fill="#1E1E1E"/>
<path d="M50.8594 77.8977C53.4948 67.3795 57.316 59.608 67.8658 54.9386C69.9709 54.0062 82.4109 50.8326 83.0908 53.4678C80.7954 54.9595 78.8481 56.2767 76.6288 57.8925C74.0342 59.642 70.4251 62.0966 68.0589 64.133L68.097 64.4966L67.7026 64.595C68.0399 64.6945 76.1936 59.8258 77.0748 59.1536C79.6041 57.9724 83.3982 55.7484 86.0499 54.3607C85.4706 55.6524 84.8804 56.9462 84.2793 58.2201C79.0031 69.4173 67.0608 76.6911 54.8764 77.5406C53.5519 77.6328 52.1948 77.772 50.8594 77.8977Z" fill="#1E1E1E"/>
<path d="M71.2929 9.53528C75.5629 11.2084 79.0333 14.3293 82.3214 17.4237C83.8581 19.2262 84.946 20.5202 86.2841 22.4576C84.1654 23.9794 81.7585 26.0869 79.9227 28.0853C79.9091 28.1006 79.6806 29.2336 79.6452 29.4131C78.7777 29.4746 76.5937 29.7647 75.9682 30.3053C75.5765 31.2198 75.6037 31.3633 75.5276 32.3781C74.3962 33.5297 73.5558 31.9757 71.3963 33.688L69.963 29.9088C67.9803 22.1576 68.2849 16.8893 71.2929 9.53528Z" fill="#1E1E1E"/>
<path d="M82.3213 17.4237C83.858 19.2262 84.9459 20.5202 86.284 22.4576C84.1653 23.9794 81.7583 26.0869 79.9225 28.0853C79.9089 28.1006 79.6805 29.2336 79.6451 29.4131C78.7775 29.4746 76.5936 29.7647 75.968 30.3053C75.5764 31.2198 75.6036 31.3633 75.5274 32.3781C74.396 33.5297 73.5556 31.9757 71.3962 33.688L69.9629 29.9088C70.5748 29.2829 72.6092 27.6451 73.3925 27.0642C76.9825 24.3975 79.2317 21.0613 82.033 17.7587L82.3213 17.4237Z" fill="#201F21"/>
<path d="M86.2844 22.4576C90.2932 29.0012 92.0121 35.9501 90.2361 43.5715C89.5317 46.5893 88.384 48.7363 87.4946 51.5349C86.3007 48.0003 84.968 43.2381 83.6761 39.962C82.9663 37.605 80.7932 31.3688 79.6455 29.4131C79.6809 29.2336 79.9093 28.1006 79.9229 28.0853C81.7587 26.0869 84.1657 23.9794 86.2844 22.4576Z" fill="#1E1E1E"/>
<path d="M71.3965 33.688C73.5559 31.9757 74.3964 33.5297 75.5278 32.3781C75.6039 31.3633 75.5767 31.2198 75.9684 30.3053C76.5939 29.7647 78.7778 29.4746 79.6454 29.4131C80.1295 32.9214 81.9572 37.3007 82.5175 40.7476C82.9227 42.5085 84.5681 48.8614 84.666 50.2191L84.2391 50.32C79.1668 47.616 73.7327 38.8901 71.3965 33.688Z" fill="#1E1E1E"/>
<path d="M144.674 379.378L144.916 377.885C146.24 381.91 150.785 395.636 150.967 399.073L150.948 399.367C150.785 402.024 151.653 403.226 150.157 404.748L149.901 404.623L149.779 403.761L149.395 403.642L149.063 404.06C148.846 399.122 146.159 384.063 144.674 379.378Z" fill="#050506" fill-opacity="0.01"/>
<path d="M80.9996 50.0535C81.8536 50.6741 89.6075 53.8691 91.2747 54.6468C98.0496 57.7641 104.669 61.2131 111.11 64.9812L111.074 66.1164C104.563 62.1853 97.8646 58.575 91 55.2983C87.5514 53.6709 83.8635 52.2857 80.5264 50.6621L80.9996 50.0535Z" fill="#201F21" fill-opacity="0.905882"/>
<path d="M110.394 43.8521C111.238 47.4744 112.225 51.5651 112.763 55.2352C111.898 57.2926 113.906 59.5963 112.687 61.3627L112.317 61.2232C112.097 59.6904 111.915 58.1524 111.773 56.6103C111.569 57.2301 111.591 57.2749 111.496 57.9303C111.039 53.9594 110.702 49.9918 110.19 46.0237L110.394 43.8521Z" fill="#201F21" fill-opacity="0.0156863"/>
<path d="M82.5198 478.893C86.7762 481.479 91.9437 484.402 96.0124 487.07C92.1912 485.669 85.6122 482.54 82.0847 480.438C81.9868 480.065 81.9025 479.684 81.8154 479.306L82.5198 478.893Z" fill="#201F21" fill-opacity="0.0235294"/>
<path d="M196.999 299.722C195.266 298.248 189.881 291.814 188.165 289.723L188.173 289.731L188.573 289.878L188.589 290.158L188.81 290.052C191.853 292.508 195.383 295.98 198.136 298.816L196.999 299.722Z" fill="#201F21" fill-opacity="0.0313725"/>
<path d="M221.897 186.828C224.419 183.463 226.899 180.068 229.341 176.644C229.303 178.167 224.149 186.171 223.007 187.895C222.738 187.463 222.305 187.173 221.897 186.828Z" fill="#1E1E1E" fill-opacity="0.0313725"/>
<path d="M166.924 362.816C166.361 361.883 162.861 353.089 162.714 352.015C164.305 354.326 167.857 361.48 168.863 364.121C166.589 363.838 168.885 363.843 166.924 362.816Z" fill="#201F21" fill-opacity="0.054902"/>
<path d="M179.668 324.722L180.264 324.371C182.178 326.851 185.113 330.628 186.761 333.222C186.051 333.255 185.776 333.244 185.078 333.407C183.582 331.319 181.172 327.102 179.668 324.722Z" fill="#201F21" fill-opacity="0.0392157"/>
<path d="M189.979 222.661C193.748 223.899 198.513 226.263 202.111 227.971L201.559 229.274C198.372 227.366 192.679 224.679 189.979 222.661Z" fill="#201F21" fill-opacity="0.0352941"/>
<path d="M175.817 162.619C179.176 163.496 185.219 163.379 188.921 164.231C186.587 164.377 185.135 163.767 183.601 164.914C181.455 164.685 176.372 163.553 174.033 163.108L173.812 162.841C174.207 162.503 175.132 162.633 175.817 162.619Z" fill="#201F21" fill-opacity="0.0313725"/>
<path d="M191.028 255.727C194.025 257.149 200.08 261.286 202.726 263.323C202.253 263.378 201.505 263.397 201.146 263.612C199.729 262.806 192.6 257.02 191.028 255.727Z" fill="#1E1E1E" fill-opacity="0.0509804"/>
<path d="M231.879 222.994C234.038 220.897 238.969 215.654 240.917 214.092C239.461 216.145 234.74 222.246 232.872 223.876L231.879 222.994Z" fill="#1E1E1E" fill-opacity="0.0352941"/>
<path d="M77.0753 59.1536C76.1941 59.8258 68.0404 64.6946 67.7031 64.595L68.0975 64.4966L68.0594 64.133C70.4256 62.0966 74.0347 59.642 76.6293 57.8925C76.8441 58.4257 76.9148 58.5962 77.0753 59.1536Z" fill="#1E1E1E" fill-opacity="0.0588235"/>
<path d="M241.558 258.511L241.83 259.186C240.522 260.3 235.991 264.215 234.707 265.001C233.989 264.746 234.038 264.772 233.57 264.171C236.247 262.304 238.909 260.417 241.558 258.511Z" fill="#1E1E1E" fill-opacity="0.0431373"/>
<path d="M219.284 344.132C220.627 343.656 228.438 341.366 229.325 341.579L229.289 341.424L229.455 341.519C227.75 342.56 220.975 344.855 218.884 345.6C219.074 344.831 219.275 345.024 219.284 344.132Z" fill="#201F21" fill-opacity="0.0352941"/>
<path d="M79.6455 29.4131C80.7932 31.3688 82.9663 37.605 83.6761 39.962L83.0044 39.9209C82.7242 40.3207 82.697 40.3025 82.5175 40.7476C81.9573 37.3007 80.1296 32.9214 79.6455 29.4131Z" fill="#201F21" fill-opacity="0.0627451"/>
<path d="M240.571 299.151C238.765 300.867 234.422 303.213 232.088 304.521L231.46 303.534C233.239 302.395 238.441 300.124 240.571 299.151Z" fill="#1E1E1E" fill-opacity="0.0392157"/>
<path d="M136.55 112.816C139.362 111.602 143.254 110.873 146.292 110.373L147.162 111.357C143.722 111.738 140.001 112.332 136.55 112.816Z" fill="#201F21" fill-opacity="0.0705882"/>
<path d="M203.015 381.622C205.813 381.358 209.123 380.961 211.889 380.858C209.352 381.836 206.11 382.277 203.404 382.707L203.015 381.622Z" fill="#201F21" fill-opacity="0.0352941"/>
<path d="M167.5 79.5675C167.601 81.8253 167.364 88.8468 166.776 91.1255L166.763 90.8609C166.7 89.5016 166.915 88.8332 166.107 88.0974L167.5 79.5675Z" fill="#201F21" fill-opacity="0.0470588"/>
<path d="M178.129 412.963C180.027 413.061 181.926 413.181 183.821 413.325C184.738 413.431 185.714 413.521 186.609 413.711L184.945 414.168L183.378 414.16C181.743 413.306 180.286 414.301 178.268 413.665L178.129 412.963Z" fill="#201F21" fill-opacity="0.027451"/>
<path d="M167.109 136.744C165.475 136.89 157.247 136.75 155.708 136.575L155.817 136.41C157.628 136.093 158.482 135.92 160.326 135.933L158.912 136.363L159.102 136.219L159.165 136.482C160.696 136.486 162.227 136.482 163.756 136.47C164.653 136.521 166.29 136.564 167.109 136.744Z" fill="#201F21" fill-opacity="0.662745"/>
<path d="M80.5259 50.6621C78.4481 49.8771 76.7646 49.2715 74.79 48.2254L74.82 48.0361C76.7782 48.32 79.109 49.3283 80.9992 50.0535L80.5259 50.6621Z" fill="#4B494C" fill-opacity="0.784314"/>
<path d="M97.481 411.392C97.7965 413.89 97.9624 421.366 97.4049 423.704L97.3967 421.379C97.4403 419.726 97.5599 417.934 97.3124 416.313L96.9697 416.147C97.0731 414.445 97.2471 413.086 97.481 411.392Z" fill="#1E1E1E" fill-opacity="0.647059"/>
<path d="M160.325 135.933C162.577 135.712 164.682 135.601 166.937 135.49C165.757 135.806 165.188 135.902 163.973 136.05L163.755 136.47C162.226 136.482 160.695 136.487 159.164 136.482L159.102 136.219L158.911 136.363L160.325 135.933Z" fill="#222122" fill-opacity="0.12549"/>
<path d="M96.1294 74.1427L97.1058 74.6129C95.9608 75.1407 92.6346 76.7572 91.582 76.8842C93.2601 75.6823 94.2882 75.1203 96.1294 74.1427Z" fill="#1E1E1E" fill-opacity="0.0980392"/>
<path d="M183.821 413.325C186.171 413.205 189.405 413.265 191.755 413.542C189.506 413.852 187.21 414.255 184.945 414.168L186.609 413.711C185.714 413.521 184.738 413.431 183.821 413.325Z" fill="#1E1E1E" fill-opacity="0.576471"/>
<path d="M96.9693 416.147L97.312 416.313C97.5595 417.934 97.4398 419.726 97.3963 421.379L96.6048 421.129C96.5205 420.226 96.8686 417.156 96.9693 416.147Z" fill="#1E1E1E" fill-opacity="0.203922"/>
<path d="M40.0107 38.1559C42.075 38.4409 44.1828 38.8602 46.2389 39.2409C45.8908 39.4429 45.5399 39.6167 45.2326 39.8644C43.7558 39.4913 41.2156 38.9415 40.0107 38.1559Z" fill="#222122" fill-opacity="0.227451"/>
<path d="M70.692 425.069C70.3439 427.397 69.9767 429.719 69.5905 432.036L69.4219 431.568L68.9541 431.345C69.4817 428.83 69.8598 427.495 70.692 425.069Z" fill="#1E1E1E" fill-opacity="0.219608"/>
<path d="M169.342 162.402C171.471 162.292 173.753 162.094 175.817 162.619C175.132 162.633 174.207 162.503 173.813 162.841L174.033 163.108C172.967 163.195 170.451 162.628 169.342 162.402Z" fill="#201F21" fill-opacity="0.631373"/>
<path d="M122.684 398.834C122.839 399.704 123.071 400.808 123.139 401.668C122.464 402.807 122.91 404.466 122.693 406.032C122.483 405.037 122.418 402.323 122.366 401.192L122.684 398.834Z" fill="#1E1E1E" fill-opacity="0.160784"/>
<path d="M139.329 65.0984C139.136 63.5133 139.071 60.2136 139.645 58.7354C139.919 59.4767 139.857 59.7883 139.835 60.5671C139.291 62.6405 139.571 63.2678 139.329 65.0984Z" fill="#222122" fill-opacity="0.631373"/>
<path d="M179.668 324.722C178.61 323.371 177.919 322.093 177.065 320.613C178.205 321.802 179.437 322.957 180.264 324.371L179.668 324.722Z" fill="#1E1E1E" fill-opacity="0.329412"/>
<path d="M241.559 258.511C242.976 257.417 243.854 256.869 245.391 255.945C244.072 257.306 243.37 258.076 241.831 259.186L241.559 258.511Z" fill="#1E1E1E" fill-opacity="0.407843"/>
<path d="M110.19 46.0237C109.883 44.6138 109.393 42.8387 109.752 41.4462C110.177 42.3669 110.209 42.8406 110.394 43.8521L110.19 46.0237Z" fill="#1E1E1E" fill-opacity="0.337255"/>
<path d="M122.366 401.192C122.1 399.375 121.863 398.38 122.173 396.569C122.682 397.045 122.63 398.092 122.685 398.834L122.366 401.192Z" fill="#1E1E1E" fill-opacity="0.435294"/>
<path d="M143.3 374.291C144.159 375.449 144.57 376.509 144.915 377.885L144.673 379.378C144.241 377.676 143.784 375.979 143.3 374.291Z" fill="#1E1E1E" fill-opacity="0.427451"/>
<path d="M191.872 111.561C192.193 109.784 192.636 108.67 193.248 106.976C193.047 108.524 192.876 110.298 192.446 111.78L191.872 111.561Z" fill="#1E1E1E" fill-opacity="0.439216"/>
</g>
<defs>
<clipPath id="clip0_3274_1940">
<rect width="281" height="521" fill="white"/>
</clipPath>
</defs>
</svg>
